<?xml version="1.0" encoding="UTF-8" standalone="no" ?>
<!DOCTYPE svg PUBLIC "-//W3C//DTD SVG 1.1//EN" "http://www.w3.org/Graphics/SVG/1.1/DTD/svg11.dtd">
<svg xmlns="http://www.w3.org/2000/svg" xmlns:xlink="http://www.w3.org/1999/xlink" version="1.1" viewBox="0 0 600 480" xml:space="preserve">

<defs>
</defs>
<g transform="matrix(1 0 0 1 300.5 295.93)" style=""  >
		<text xml:space="preserve" font-family="WenCang-Regular" font-size="45" font-style="normal" font-weight="normal" style="stroke: none; stroke-width: 1; stroke-dasharray: none; stroke-linecap: butt; stroke-dashoffset: 0; stroke-linejoin: miter; stroke-miterlimit: 4; fill: rgb(50,50,50); fill-rule: nonzero; opacity: 1; white-space: pre;" ><tspan x="-55.58" y="14.14" >zlonx</tspan></text>
</g>
<g transform="matrix(1 0 0 1 300.5 326.41)" style=""  >
		<text xml:space="preserve" font-family="WenCang-Regular" font-size="14" font-style="normal" font-weight="normal" style="stroke: none; stroke-width: 1; stroke-dasharray: none; stroke-linecap: butt; stroke-dashoffset: 0; stroke-linejoin: miter; stroke-miterlimit: 4; fill: rgb(50,50,50); fill-rule: nonzero; opacity: 1; white-space: pre;" ></text>
</g>
<g transform="matrix(0.73 0 0 0.73 269.03 190.62)" id="图层_1_复制"  >
<linearGradient id="SVGID_未命名的渐变_50_1" gradientUnits="userSpaceOnUse" gradientTransform="matrix(1 0 0 -1 0 374.78)"  x1="0" y1="268.59" x2="120.64" y2="268.59">
<stop offset="0%" style="stop-color:rgb(58,52,59);stop-opacity: 1"/>
<stop offset="53%" style="stop-color:rgb(16,22,46);stop-opacity: 1"/>
<stop offset="100%" style="stop-color:rgb(42,56,85);stop-opacity: 1"/>
</linearGradient>
<path style="stroke: none; stroke-width: 1; stroke-dasharray: none; stroke-linecap: butt; stroke-dashoffset: 0; stroke-linejoin: miter; stroke-miterlimit: 4; fill: url(#SVGID_未命名的渐变_50_1); fill-rule: nonzero; opacity: 1;"  transform=" translate(-60.32, -106.19)" d="M 120.64 27.3 C 30.070000000000007 56.86 12.939999999999998 107.17999999999999 24.560000000000002 135.3 C 32.09 153.53 61.150000000000006 153.11 61.150000000000006 153.11 L 75.55000000000001 185.32000000000002 C 75.55000000000001 185.32000000000002 0 191.38 0 125.45 C 0 59.52000000000001 104.35 22.75 120.64 27.3 Z" stroke-linecap="round" />
</g>
<g transform="matrix(0.73 0 0 0.73 256.29 163.39)" id="图层_1_复制"  >
<circle style="stroke: none; stroke-width: 1; stroke-dasharray: none; stroke-linecap: butt; stroke-dashoffset: 0; stroke-linejoin: miter; stroke-miterlimit: 4; fill: rgb(255,255,255); fill-rule: nonzero; opacity: 1;"  cx="0" cy="0" r="6.73" />
</g>
<g transform="matrix(0.73 0 0 0.73 252.77 159.98)" id="图层_1_复制"  >
<linearGradient id="SVGID_未命名的渐变_50-2_2" gradientUnits="userSpaceOnUse" gradientTransform="matrix(1 0 0 -1 0 374.78)"  x1="37.98" y1="310.56" x2="38.07" y2="310.56">
<stop offset="0%" style="stop-color:rgb(58,52,59);stop-opacity: 1"/>
<stop offset="53%" style="stop-color:rgb(16,22,46);stop-opacity: 1"/>
<stop offset="100%" style="stop-color:rgb(42,56,85);stop-opacity: 1"/>
</linearGradient>
<path style="stroke: none; stroke-width: 1; stroke-dasharray: none; stroke-linecap: butt; stroke-dashoffset: 0; stroke-linejoin: miter; stroke-miterlimit: 4; fill: url(#SVGID_未命名的渐变_50-2_2); fill-rule: nonzero; opacity: 1;"  transform=" translate(-38.05, -64.22)" d="M 38 64.27 L 38.09 64.17 Z" stroke-linecap="round" />
</g>
<g transform="matrix(0.73 0 0 0.73 252.43 160.36)" id="图层_1_复制"  >
<linearGradient id="SVGID_未命名的渐变_50-3_3" gradientUnits="userSpaceOnUse" gradientTransform="matrix(1 0 0 -1 0 374.78)"  x1="37.53" y1="310.04" x2="37.62" y2="310.04">
<stop offset="0%" style="stop-color:rgb(58,52,59);stop-opacity: 1"/>
<stop offset="53%" style="stop-color:rgb(16,22,46);stop-opacity: 1"/>
<stop offset="100%" style="stop-color:rgb(42,56,85);stop-opacity: 1"/>
</linearGradient>
<path style="stroke: none; stroke-width: 1; stroke-dasharray: none; stroke-linecap: butt; stroke-dashoffset: 0; stroke-linejoin: miter; stroke-miterlimit: 4; fill: url(#SVGID_未命名的渐变_50-3_3); fill-rule: nonzero; opacity: 1;"  transform=" translate(-37.58, -64.74)" d="M 37.53 64.8 L 37.620000000000005 64.67999999999999 Z" stroke-linecap="round" />
</g>
<g transform="matrix(0.73 0 0 0.73 252.15 160.77)" id="图层_1_复制"  >
<linearGradient id="SVGID_未命名的渐变_50-4_4" gradientUnits="userSpaceOnUse" gradientTransform="matrix(1 0 0 -1 0 374.78)"  x1="37.15" y1="309.49" x2="37.22" y2="309.49">
<stop offset="0%" style="stop-color:rgb(58,52,59);stop-opacity: 1"/>
<stop offset="53%" style="stop-color:rgb(16,22,46);stop-opacity: 1"/>
<stop offset="100%" style="stop-color:rgb(42,56,85);stop-opacity: 1"/>
</linearGradient>
<path style="stroke: none; stroke-width: 1; stroke-dasharray: none; stroke-linecap: butt; stroke-dashoffset: 0; stroke-linejoin: miter; stroke-miterlimit: 4; fill: url(#SVGID_未命名的渐变_50-4_4); fill-rule: nonzero; opacity: 1;"  transform=" translate(-37.19, -65.29)" d="M 37.15 65.35 C 37.16731645249278 65.30983420034572 37.19094853783953 65.27269806622938 37.22 65.24 Z" stroke-linecap="round" />
</g>
<g transform="matrix(0.73 0 0 0.73 251.88 161.2)" id="图层_1_复制"  >
<linearGradient id="SVGID_未命名的渐变_50-5_5" gradientUnits="userSpaceOnUse" gradientTransform="matrix(1 0 0 -1 0 374.78)"  x1="36.82" y1="308.89" x2="36.87" y2="308.89">
<stop offset="0%" style="stop-color:rgb(58,52,59);stop-opacity: 1"/>
<stop offset="53%" style="stop-color:rgb(16,22,46);stop-opacity: 1"/>
<stop offset="100%" style="stop-color:rgb(42,56,85);stop-opacity: 1"/>
</linearGradient>
<path style="stroke: none; stroke-width: 1; stroke-dasharray: none; stroke-linecap: butt; stroke-dashoffset: 0; stroke-linejoin: miter; stroke-miterlimit: 4; fill: url(#SVGID_未命名的渐变_50-5_5); fill-rule: nonzero; opacity: 1;"  transform=" translate(-36.82, -65.89)" d="M 36.82 65.94 L 36.82 65.85 Z" stroke-linecap="round" />
</g>
<g transform="matrix(0.73 0 0 0.73 251.69 161.66)" id="图层_1_复制"  >
<linearGradient id="SVGID_未命名的渐变_50-6_6" gradientUnits="userSpaceOnUse" gradientTransform="matrix(1 0 0 -1 0 374.78)"  x1="36.56" y1="308.25" x2="36.58" y2="308.25">
<stop offset="0%" style="stop-color:rgb(58,52,59);stop-opacity: 1"/>
<stop offset="53%" style="stop-color:rgb(16,22,46);stop-opacity: 1"/>
<stop offset="100%" style="stop-color:rgb(42,56,85);stop-opacity: 1"/>
</linearGradient>
<path style="stroke: none; stroke-width: 1; stroke-dasharray: none; stroke-linecap: butt; stroke-dashoffset: 0; stroke-linejoin: miter; stroke-miterlimit: 4; fill: url(#SVGID_未命名的渐变_50-6_6); fill-rule: nonzero; opacity: 1;"  transform=" translate(-36.56, -66.53)" d="M 36.56 66.56 L 36.56 66.49000000000001 C 36.557726095395914 66.51327793359603 36.557726095395914 66.53672206640398 36.56 66.56 Z" stroke-linecap="round" />
</g>
<g transform="matrix(0.73 0 0 0.73 258.58 166.5)" id="图层_1_复制"  >
<linearGradient id="SVGID_未命名的渐变_50-7_7" gradientUnits="userSpaceOnUse" gradientTransform="matrix(1 0 0 -1 0 374.78)"  x1="44.81" y1="301.65" x2="47.21" y2="301.65">
<stop offset="0%" style="stop-color:rgb(58,52,59);stop-opacity: 1"/>
<stop offset="53%" style="stop-color:rgb(16,22,46);stop-opacity: 1"/>
<stop offset="100%" style="stop-color:rgb(42,56,85);stop-opacity: 1"/>
</linearGradient>
<path style="stroke: none; stroke-width: 1; stroke-dasharray: none; stroke-linecap: butt; stroke-dashoffset: 0; stroke-linejoin: miter; stroke-miterlimit: 4; fill: url(#SVGID_未命名的渐变_50-7_7); fill-rule: nonzero; opacity: 1;"  transform=" translate(-46.01, -73.16)" d="M 44.81 72 C 45.32155518325586 72.5047431987565 45.78365941954321 73.0572591334479 46.19 73.64999999999999 C 46.365479579181155 73.9104209666666 46.5895790333334 74.13452042081886 46.85 74.31 L 46.85 74.31 L 47.2 74 C 46.547981314275596 73.17739921223361 45.7346594169001 72.49679511401143 44.81 72 Z" stroke-linecap="round" />
</g>
<g transform="matrix(0.73 0 0 0.73 260.77 165.45)" id="图层_1_复制"  >
<linearGradient id="SVGID_未命名的渐变_50-8_8" gradientUnits="userSpaceOnUse" gradientTransform="matrix(1 0 0 -1 0 374.78)"  x1="48.95" y1="303.05" x2="48.96" y2="303.05">
<stop offset="0%" style="stop-color:rgb(58,52,59);stop-opacity: 1"/>
<stop offset="53%" style="stop-color:rgb(16,22,46);stop-opacity: 1"/>
<stop offset="100%" style="stop-color:rgb(42,56,85);stop-opacity: 1"/>
</linearGradient>
<path style="stroke: none; stroke-width: 1; stroke-dasharray: none; stroke-linecap: butt; stroke-dashoffset: 0; stroke-linejoin: miter; stroke-miterlimit: 4; fill: url(#SVGID_未命名的渐变_50-8_8); fill-rule: nonzero; opacity: 1;"  transform=" translate(-49, -71.71)" d="M 49 71.71 C 49 71.71 49 71.71 49 71.71 C 49 71.71 49 71.72 49 71.71 Z" stroke-linecap="round" />
</g>
<g transform="matrix(0.73 0 0 0.73 260.24 166.29)" id="图层_1_复制"  >
<linearGradient id="SVGID_未命名的渐变_50-9_9" gradientUnits="userSpaceOnUse" gradientTransform="matrix(1 0 0 -1 0 374.78)"  x1="48.26" y1="301.91" x2="48.28" y2="301.91">
<stop offset="0%" style="stop-color:rgb(58,52,59);stop-opacity: 1"/>
<stop offset="53%" style="stop-color:rgb(16,22,46);stop-opacity: 1"/>
<stop offset="100%" style="stop-color:rgb(42,56,85);stop-opacity: 1"/>
</linearGradient>
<path style="stroke: none; stroke-width: 1; stroke-dasharray: none; stroke-linecap: butt; stroke-dashoffset: 0; stroke-linejoin: miter; stroke-miterlimit: 4; fill: url(#SVGID_未命名的渐变_50-9_9); fill-rule: nonzero; opacity: 1;"  transform=" translate(-48.28, -72.86)" d="M 48.28 72.86 L 48.28 72.86 C 48.28 72.86 48.27 72.87 48.28 72.86 Z" stroke-linecap="round" />
</g>
<g transform="matrix(0.73 0 0 0.73 259.59 167.02)" id="图层_1_复制"  >
<linearGradient id="SVGID_未命名的渐变_50-10_10" gradientUnits="userSpaceOnUse" gradientTransform="matrix(1 0 0 -1 0 374.78)"  x1="47.38" y1="300.92" x2="47.38" y2="300.92">
<stop offset="0%" style="stop-color:rgb(58,52,59);stop-opacity: 1"/>
<stop offset="53%" style="stop-color:rgb(16,22,46);stop-opacity: 1"/>
<stop offset="100%" style="stop-color:rgb(42,56,85);stop-opacity: 1"/>
</linearGradient>
<path style="stroke: none; stroke-width: 1; stroke-dasharray: none; stroke-linecap: butt; stroke-dashoffset: 0; stroke-linejoin: miter; stroke-miterlimit: 4; fill: url(#SVGID_未命名的渐变_50-10_10); fill-rule: nonzero; opacity: 1;"  transform=" translate(-47.38, -73.86)" d="M 47.38 73.86 Z" stroke-linecap="round" />
</g>
<g transform="matrix(0.73 0 0 0.73 260.93 164.99)" id="图层_1_复制"  >
<linearGradient id="SVGID_未命名的渐变_50-11_11" gradientUnits="userSpaceOnUse" gradientTransform="matrix(1 0 0 -1 0 374.78)"  x1="49.21" y1="303.68" x2="49.22" y2="303.68">
<stop offset="0%" style="stop-color:rgb(58,52,59);stop-opacity: 1"/>
<stop offset="53%" style="stop-color:rgb(16,22,46);stop-opacity: 1"/>
<stop offset="100%" style="stop-color:rgb(42,56,85);stop-opacity: 1"/>
</linearGradient>
<path style="stroke: none; stroke-width: 1; stroke-dasharray: none; stroke-linecap: butt; stroke-dashoffset: 0; stroke-linejoin: miter; stroke-miterlimit: 4; fill: url(#SVGID_未命名的渐变_50-11_11); fill-rule: nonzero; opacity: 1;"  transform=" translate(-49.22, -71.08)" d="M 49.22 71.08 C 49.22 71.08 49.22 71.08 49.22 71.08 Z" stroke-linecap="round" />
</g>
<g transform="matrix(0.73 0 0 0.73 259.93 166.67)" id="图层_1_复制"  >
<linearGradient id="SVGID_未命名的渐变_50-12_12" gradientUnits="userSpaceOnUse" gradientTransform="matrix(1 0 0 -1 0 374.78)"  x1="47.84" y1="301.38" x2="47.85" y2="301.38">
<stop offset="0%" style="stop-color:rgb(58,52,59);stop-opacity: 1"/>
<stop offset="53%" style="stop-color:rgb(16,22,46);stop-opacity: 1"/>
<stop offset="100%" style="stop-color:rgb(42,56,85);stop-opacity: 1"/>
</linearGradient>
<path style="stroke: none; stroke-width: 1; stroke-dasharray: none; stroke-linecap: butt; stroke-dashoffset: 0; stroke-linejoin: miter; stroke-miterlimit: 4; fill: url(#SVGID_未命名的渐变_50-12_12); fill-rule: nonzero; opacity: 1;"  transform=" translate(-47.85, -73.39)" d="M 47.85 73.39 L 47.85 73.39 Z" stroke-linecap="round" />
</g>
<g transform="matrix(0.73 0 0 0.73 260.51 165.88)" id="图层_1_复制"  >
<linearGradient id="SVGID_未命名的渐变_50-13_13" gradientUnits="userSpaceOnUse" gradientTransform="matrix(1 0 0 -1 0 374.78)"  x1="48.63" y1="302.46" x2="48.65" y2="302.46">
<stop offset="0%" style="stop-color:rgb(58,52,59);stop-opacity: 1"/>
<stop offset="53%" style="stop-color:rgb(16,22,46);stop-opacity: 1"/>
<stop offset="100%" style="stop-color:rgb(42,56,85);stop-opacity: 1"/>
</linearGradient>
<path style="stroke: none; stroke-width: 1; stroke-dasharray: none; stroke-linecap: butt; stroke-dashoffset: 0; stroke-linejoin: miter; stroke-miterlimit: 4; fill: url(#SVGID_未命名的渐变_50-13_13); fill-rule: nonzero; opacity: 1;"  transform=" translate(-48.65, -72.3)" d="M 48.65 72.3 L 48.65 72.3 C 48.65 72.3 48.65 72.31 48.65 72.3 Z" stroke-linecap="round" />
</g>
<g transform="matrix(0.73 0 0 0.73 261.07 164.51)" id="图层_1_复制"  >
<linearGradient id="SVGID_未命名的渐变_50-14_14" gradientUnits="userSpaceOnUse" gradientTransform="matrix(1 0 0 -1 0 374.78)"  x1="49.4" y1="304.35" x2="49.41" y2="304.35">
<stop offset="0%" style="stop-color:rgb(58,52,59);stop-opacity: 1"/>
<stop offset="53%" style="stop-color:rgb(16,22,46);stop-opacity: 1"/>
<stop offset="100%" style="stop-color:rgb(42,56,85);stop-opacity: 1"/>
</linearGradient>
<path style="stroke: none; stroke-width: 1; stroke-dasharray: none; stroke-linecap: butt; stroke-dashoffset: 0; stroke-linejoin: miter; stroke-miterlimit: 4; fill: url(#SVGID_未命名的渐变_50-14_14); fill-rule: nonzero; opacity: 1;"  transform=" translate(-49.41, -70.42)" d="M 49.41 70.42 L 49.41 70.42 C 49.41 70.42 49.41 70.43 49.41 70.42 Z" stroke-linecap="round" />
</g>
<g transform="matrix(0.73 0 0 0.73 256.65 168.27)" id="图层_1_复制"  >
<linearGradient id="SVGID_未命名的渐变_50-15_15" gradientUnits="userSpaceOnUse" gradientTransform="matrix(1 0 0 -1 0 374.78)"  x1="42.86" y1="299.21" x2="43.86" y2="299.21">
<stop offset="0%" style="stop-color:rgb(58,52,59);stop-opacity: 1"/>
<stop offset="53%" style="stop-color:rgb(16,22,46);stop-opacity: 1"/>
<stop offset="100%" style="stop-color:rgb(42,56,85);stop-opacity: 1"/>
</linearGradient>
<path style="stroke: none; stroke-width: 1; stroke-dasharray: none; stroke-linecap: butt; stroke-dashoffset: 0; stroke-linejoin: miter; stroke-miterlimit: 4; fill: url(#SVGID_未命名的渐变_50-15_15); fill-rule: nonzero; opacity: 1;"  transform=" translate(-43.36, -75.57)" d="M 43.86 75.53 C 43.52916540019318 75.58188316313996 43.19487536215268 75.60862636618322 42.86 75.61 C 43.19487536215268 75.60862636618322 43.52916540019318 75.58188316313998 43.86 75.53 Z" stroke-linecap="round" />
</g>
<g transform="matrix(0.73 0 0 0.73 255.02 158.66)" id="图层_1_复制"  >
<linearGradient id="SVGID_未命名的渐变_50-16_16" gradientUnits="userSpaceOnUse" gradientTransform="matrix(1 0 0 -1 0 374.78)"  x1="40.63" y1="312.36" x2="41.62" y2="312.36">
<stop offset="0%" style="stop-color:rgb(58,52,59);stop-opacity: 1"/>
<stop offset="53%" style="stop-color:rgb(16,22,46);stop-opacity: 1"/>
<stop offset="100%" style="stop-color:rgb(42,56,85);stop-opacity: 1"/>
</linearGradient>
<path style="stroke: none; stroke-width: 1; stroke-dasharray: none; stroke-linecap: butt; stroke-dashoffset: 0; stroke-linejoin: miter; stroke-miterlimit: 4; fill: url(#SVGID_未命名的渐变_50-16_16); fill-rule: nonzero; opacity: 1;"  transform=" translate(-41.13, -62.41)" d="M 40.63 62.55 C 40.955708251105754 62.433823076174995 41.29008047491319 62.34354257574699 41.63 62.279999999999994 C 41.29088589523906 62.3470320104883 40.95676854523959 62.437243694988155 40.63 62.55 Z" stroke-linecap="round" />
</g>
<g transform="matrix(0.73 0 0 0.73 258.54 167.7)" id="图层_1_复制"  >
<linearGradient id="SVGID_未命名的渐变_50-17_17" gradientUnits="userSpaceOnUse" gradientTransform="matrix(1 0 0 -1 0 374.78)"  x1="45.04" y1="300.01" x2="46.86" y2="300.01">
<stop offset="0%" style="stop-color:rgb(58,52,59);stop-opacity: 1"/>
<stop offset="53%" style="stop-color:rgb(16,22,46);stop-opacity: 1"/>
<stop offset="100%" style="stop-color:rgb(42,56,85);stop-opacity: 1"/>
</linearGradient>
<path style="stroke: none; stroke-width: 1; stroke-dasharray: none; stroke-linecap: butt; stroke-dashoffset: 0; stroke-linejoin: miter; stroke-miterlimit: 4; fill: url(#SVGID_未命名的渐变_50-17_17); fill-rule: nonzero; opacity: 1;"  transform=" translate(-45.95, -74.79)" d="M 46.86 74.29 C 46.30863535774079 74.71535170371146 45.69468319271633 75.05268805812051 45.04 75.29 C 45.69468319271633 75.05268805812051 46.30863535774079 74.71535170371146 46.86 74.29 Z" stroke-linecap="round" />
</g>
<g transform="matrix(0.73 0 0 0.73 255.89 158.51)" id="图层_1_复制"  >
<linearGradient id="SVGID_未命名的渐变_50-18_18" gradientUnits="userSpaceOnUse" gradientTransform="matrix(1 0 0 -1 0 374.78)"  x1="41.76" y1="312.57" x2="42.86" y2="312.57">
<stop offset="0%" style="stop-color:rgb(58,52,59);stop-opacity: 1"/>
<stop offset="53%" style="stop-color:rgb(16,22,46);stop-opacity: 1"/>
<stop offset="100%" style="stop-color:rgb(42,56,85);stop-opacity: 1"/>
</linearGradient>
<path style="stroke: none; stroke-width: 1; stroke-dasharray: none; stroke-linecap: butt; stroke-dashoffset: 0; stroke-linejoin: miter; stroke-miterlimit: 4; fill: url(#SVGID_未命名的渐变_50-18_18); fill-rule: nonzero; opacity: 1;"  transform=" translate(-42.31, -62.21)" d="M 41.76 62.26 C 42.12324081313959 62.19608259360054 42.49118786461033 62.16263286164865 42.86 62.16 C 42.491210483901106 62.16309213239573 42.123301383971906 62.196538414207474 41.76 62.26 Z" stroke-linecap="round" />
</g>
<g transform="matrix(0.73 0 0 0.73 257.5 168.13)" id="图层_1_复制"  >
<linearGradient id="SVGID_未命名的渐变_50-19_19" gradientUnits="userSpaceOnUse" gradientTransform="matrix(1 0 0 -1 0 374.78)"  x1="44.03" y1="299.39" x2="44.98" y2="299.39">
<stop offset="0%" style="stop-color:rgb(58,52,59);stop-opacity: 1"/>
<stop offset="53%" style="stop-color:rgb(16,22,46);stop-opacity: 1"/>
<stop offset="100%" style="stop-color:rgb(42,56,85);stop-opacity: 1"/>
</linearGradient>
<path style="stroke: none; stroke-width: 1; stroke-dasharray: none; stroke-linecap: butt; stroke-dashoffset: 0; stroke-linejoin: miter; stroke-miterlimit: 4; fill: url(#SVGID_未命名的渐变_50-19_19); fill-rule: nonzero; opacity: 1;"  transform=" translate(-44.52, -75.39)" d="M 45 75.27 C 44.68904082476181 75.37109955091654 44.37166524567929 75.45127864457949 44.05 75.50999999999999 C 44.37192573711689 75.45248265797382 44.68938343583585 75.37228281829745 45 75.27 Z" stroke-linecap="round" />
</g>
<g transform="matrix(0.73 0 0 0.73 253.47 159.39)" id="图层_1_复制"  >
<linearGradient id="SVGID_未命名的渐变_50-20_20" gradientUnits="userSpaceOnUse" gradientTransform="matrix(1 0 0 -1 0 374.78)"  x1="38.57" y1="311.37" x2="39.43" y2="311.37">
<stop offset="0%" style="stop-color:rgb(58,52,59);stop-opacity: 1"/>
<stop offset="53%" style="stop-color:rgb(16,22,46);stop-opacity: 1"/>
<stop offset="100%" style="stop-color:rgb(42,56,85);stop-opacity: 1"/>
</linearGradient>
<path style="stroke: none; stroke-width: 1; stroke-dasharray: none; stroke-linecap: butt; stroke-dashoffset: 0; stroke-linejoin: miter; stroke-miterlimit: 4; fill: url(#SVGID_未命名的渐变_50-20_20); fill-rule: nonzero; opacity: 1;"  transform=" translate(-39, -63.41)" d="M 39.43 63.11 C 39.12939532678138 63.28924093171635 38.84199543059754 63.48975248719344 38.57 63.71 L 38.57 63.71 C 38.84199543059754 63.48975248719344 39.12939532678138 63.28924093171634 39.43 63.11 Z" stroke-linecap="round" />
</g>
<g transform="matrix(0.73 0 0 0.73 261.19 163.52)" id="图层_1_复制"  >
<linearGradient id="SVGID_未命名的渐变_50-21_21" gradientUnits="userSpaceOnUse" gradientTransform="matrix(1 0 0 -1 0 374.78)"  x1="49.56" y1="305.71" x2="49.59" y2="305.71">
<stop offset="0%" style="stop-color:rgb(58,52,59);stop-opacity: 1"/>
<stop offset="53%" style="stop-color:rgb(16,22,46);stop-opacity: 1"/>
<stop offset="100%" style="stop-color:rgb(42,56,85);stop-opacity: 1"/>
</linearGradient>
<path style="stroke: none; stroke-width: 1; stroke-dasharray: none; stroke-linecap: butt; stroke-dashoffset: 0; stroke-linejoin: miter; stroke-miterlimit: 4; fill: url(#SVGID_未命名的渐变_50-21_21); fill-rule: nonzero; opacity: 1;"  transform=" translate(-49.57, -69.07)" d="M 49.57 69.25 C 49.57 69.13 49.57 69.01 49.57 68.89 C 49.57 69.01 49.57 69.13 49.57 69.25 Z" stroke-linecap="round" />
</g>
<g transform="matrix(0.73 0 0 0.73 259.34 167.23)" id="图层_1_复制"  >
<linearGradient id="SVGID_未命名的渐变_50-22_22" gradientUnits="userSpaceOnUse" gradientTransform="matrix(1 0 0 -1 0 374.78)"  x1="46.86" y1="300.64" x2="47.22" y2="300.64">
<stop offset="0%" style="stop-color:rgb(58,52,59);stop-opacity: 1"/>
<stop offset="53%" style="stop-color:rgb(16,22,46);stop-opacity: 1"/>
<stop offset="100%" style="stop-color:rgb(42,56,85);stop-opacity: 1"/>
</linearGradient>
<path style="stroke: none; stroke-width: 1; stroke-dasharray: none; stroke-linecap: butt; stroke-dashoffset: 0; stroke-linejoin: miter; stroke-miterlimit: 4; fill: url(#SVGID_未命名的渐变_50-22_22); fill-rule: nonzero; opacity: 1;"  transform=" translate(-47.04, -74.15)" d="M 46.86 74.29 L 47.22 74.01 Z" stroke-linecap="round" />
</g>
<g transform="matrix(0.73 0 0 0.73 254.21 158.93)" id="图层_1_复制"  >
<linearGradient id="SVGID_未命名的渐变_50-23_23" gradientUnits="userSpaceOnUse" gradientTransform="matrix(1 0 0 -1 0 374.78)"  x1="39.55" y1="311.96" x2="40.46" y2="311.96">
<stop offset="0%" style="stop-color:rgb(58,52,59);stop-opacity: 1"/>
<stop offset="53%" style="stop-color:rgb(16,22,46);stop-opacity: 1"/>
<stop offset="100%" style="stop-color:rgb(42,56,85);stop-opacity: 1"/>
</linearGradient>
<path style="stroke: none; stroke-width: 1; stroke-dasharray: none; stroke-linecap: butt; stroke-dashoffset: 0; stroke-linejoin: miter; stroke-miterlimit: 4; fill: url(#SVGID_未命名的渐变_50-23_23); fill-rule: nonzero; opacity: 1;"  transform=" translate(-40.01, -62.78)" d="M 39.55 63 C 39.843829465984754 62.83066684097062 40.1516206853748 62.6868079014731 40.47 62.57 C 40.15254083554124 62.689007620081355 39.844926855713986 62.83278371934844 39.55 63 Z" stroke-linecap="round" />
</g>
<g transform="matrix(0.73 0 0 0.73 259.76 166.85)" id="图层_1_复制"  >
<linearGradient id="SVGID_未命名的渐变_50-24_24" gradientUnits="userSpaceOnUse" gradientTransform="matrix(1 0 0 -1 0 374.78)"  x1="47.38" y1="301.14" x2="47.84" y2="301.14">
<stop offset="0%" style="stop-color:rgb(58,52,59);stop-opacity: 1"/>
<stop offset="53%" style="stop-color:rgb(16,22,46);stop-opacity: 1"/>
<stop offset="100%" style="stop-color:rgb(42,56,85);stop-opacity: 1"/>
</linearGradient>
<path style="stroke: none; stroke-width: 1; stroke-dasharray: none; stroke-linecap: butt; stroke-dashoffset: 0; stroke-linejoin: miter; stroke-miterlimit: 4; fill: url(#SVGID_未命名的渐变_50-24_24); fill-rule: nonzero; opacity: 1;"  transform=" translate(-47.61, -73.64)" d="M 47.84 73.4 C 47.690000000000005 73.56 47.540000000000006 73.72 47.38 73.87 C 47.54 73.72 47.7 73.56 47.84 73.4 Z" stroke-linecap="round" />
</g>
<g transform="matrix(0.73 0 0 0.73 260.84 165.23)" id="图层_1_复制"  >
<linearGradient id="SVGID_未命名的渐变_50-25_25" gradientUnits="userSpaceOnUse" gradientTransform="matrix(1 0 0 -1 0 374.78)"  x1="48.96" y1="303.37" x2="49.21" y2="303.37">
<stop offset="0%" style="stop-color:rgb(58,52,59);stop-opacity: 1"/>
<stop offset="53%" style="stop-color:rgb(16,22,46);stop-opacity: 1"/>
<stop offset="100%" style="stop-color:rgb(42,56,85);stop-opacity: 1"/>
</linearGradient>
<path style="stroke: none; stroke-width: 1; stroke-dasharray: none; stroke-linecap: butt; stroke-dashoffset: 0; stroke-linejoin: miter; stroke-miterlimit: 4; fill: url(#SVGID_未命名的渐变_50-25_25); fill-rule: nonzero; opacity: 1;"  transform=" translate(-49.09, -71.41)" d="M 49.21 71.11 Q 49.11 71.41 48.97 71.71 C 49.05 71.51 49.14 71.31 49.21 71.11 Z" stroke-linecap="round" />
</g>
<g transform="matrix(0.73 0 0 0.73 259.52 167.07)" id="图层_1_复制"  >
<linearGradient id="SVGID_未命名的渐变_50-26_26" gradientUnits="userSpaceOnUse" gradientTransform="matrix(1 0 0 -1 0 374.78)"  x1="47.21" y1="300.84" x2="47.37" y2="300.84">
<stop offset="0%" style="stop-color:rgb(58,52,59);stop-opacity: 1"/>
<stop offset="53%" style="stop-color:rgb(16,22,46);stop-opacity: 1"/>
<stop offset="100%" style="stop-color:rgb(42,56,85);stop-opacity: 1"/>
</linearGradient>
<path style="stroke: none; stroke-width: 1; stroke-dasharray: none; stroke-linecap: butt; stroke-dashoffset: 0; stroke-linejoin: miter; stroke-miterlimit: 4; fill: url(#SVGID_未命名的渐变_50-26_26); fill-rule: nonzero; opacity: 1;"  transform=" translate(-47.29, -73.94)" d="M 47.21 74 L 47.21 74 L 47.37 73.87 Z" stroke-linecap="round" />
</g>
<g transform="matrix(0.73 0 0 0.73 261 164.75)" id="图层_1_复制"  >
<linearGradient id="SVGID_未命名的渐变_50-27_27" gradientUnits="userSpaceOnUse" gradientTransform="matrix(1 0 0 -1 0 374.78)"  x1="49.22" y1="304.02" x2="49.4" y2="304.02">
<stop offset="0%" style="stop-color:rgb(58,52,59);stop-opacity: 1"/>
<stop offset="53%" style="stop-color:rgb(16,22,46);stop-opacity: 1"/>
<stop offset="100%" style="stop-color:rgb(42,56,85);stop-opacity: 1"/>
</linearGradient>
<path style="stroke: none; stroke-width: 1; stroke-dasharray: none; stroke-linecap: butt; stroke-dashoffset: 0; stroke-linejoin: miter; stroke-miterlimit: 4; fill: url(#SVGID_未命名的渐变_50-27_27); fill-rule: nonzero; opacity: 1;"  transform=" translate(-49.31, -70.76)" d="M 49.4 70.44 C 49.4 70.66 49.29 70.87 49.22 71.08 C 49.29 70.87 49.35 70.66 49.4 70.44 Z" stroke-linecap="round" />
</g>
<g transform="matrix(0.73 0 0 0.73 260.37 166.09)" id="图层_1_复制"  >
<linearGradient id="SVGID_未命名的渐变_50-28_28" gradientUnits="userSpaceOnUse" gradientTransform="matrix(1 0 0 -1 0 374.78)"  x1="48.28" y1="302.18" x2="48.63" y2="302.18">
<stop offset="0%" style="stop-color:rgb(58,52,59);stop-opacity: 1"/>
<stop offset="53%" style="stop-color:rgb(16,22,46);stop-opacity: 1"/>
<stop offset="100%" style="stop-color:rgb(42,56,85);stop-opacity: 1"/>
</linearGradient>
<path style="stroke: none; stroke-width: 1; stroke-dasharray: none; stroke-linecap: butt; stroke-dashoffset: 0; stroke-linejoin: miter; stroke-miterlimit: 4; fill: url(#SVGID_未命名的渐变_50-28_28); fill-rule: nonzero; opacity: 1;"  transform=" translate(-48.45, -72.59)" d="M 48.63 72.33 C 48.52 72.51 48.400000000000006 72.69 48.28 72.86 C 48.40585088306966 72.68957280595492 48.522677964520355 72.51266322547245 48.63 72.33 Z" stroke-linecap="round" />
</g>
<g transform="matrix(0.73 0 0 0.73 260.08 166.48)" id="图层_1_复制"  >
<linearGradient id="SVGID_未命名的渐变_50-29_29" gradientUnits="userSpaceOnUse" gradientTransform="matrix(1 0 0 -1 0 374.78)"  x1="47.85" y1="301.65" x2="48.26" y2="301.65">
<stop offset="0%" style="stop-color:rgb(58,52,59);stop-opacity: 1"/>
<stop offset="53%" style="stop-color:rgb(16,22,46);stop-opacity: 1"/>
<stop offset="100%" style="stop-color:rgb(42,56,85);stop-opacity: 1"/>
</linearGradient>
<path style="stroke: none; stroke-width: 1; stroke-dasharray: none; stroke-linecap: butt; stroke-dashoffset: 0; stroke-linejoin: miter; stroke-miterlimit: 4; fill: url(#SVGID_未命名的渐变_50-29_29); fill-rule: nonzero; opacity: 1;"  transform=" translate(-48.05, -73.13)" d="M 48.26 72.88 C 48.129999999999995 73.05 47.989999999999995 73.22 47.85 73.38 C 48.00030574165489 73.22500038216963 48.137446058194406 73.0577560937068 48.26 72.88 Z" stroke-linecap="round" />
</g>
<g transform="matrix(0.73 0 0 0.73 260.66 165.68)" id="图层_1_复制"  >
<linearGradient id="SVGID_未命名的渐变_50-30_30" gradientUnits="userSpaceOnUse" gradientTransform="matrix(1 0 0 -1 0 374.78)"  x1="48.65" y1="302.75" x2="48.95" y2="302.75">
<stop offset="0%" style="stop-color:rgb(58,52,59);stop-opacity: 1"/>
<stop offset="53%" style="stop-color:rgb(16,22,46);stop-opacity: 1"/>
<stop offset="100%" style="stop-color:rgb(42,56,85);stop-opacity: 1"/>
</linearGradient>
<path style="stroke: none; stroke-width: 1; stroke-dasharray: none; stroke-linecap: butt; stroke-dashoffset: 0; stroke-linejoin: miter; stroke-miterlimit: 4; fill: url(#SVGID_未命名的渐变_50-30_30); fill-rule: nonzero; opacity: 1;"  transform=" translate(-48.85, -72.02)" d="M 49 71.74 Q 48.86 72.03 48.7 72.30999999999999 Q 48.82 72 49 71.74 Z" stroke-linecap="round" />
</g>
<g transform="matrix(0.73 0 0 0.73 261.13 164.08)" id="图层_1_复制"  >
<linearGradient id="SVGID_未命名的渐变_50-31_31" gradientUnits="userSpaceOnUse" gradientTransform="matrix(1 0 0 -1 0 374.78)"  x1="49.41" y1="304.95" x2="49.57" y2="304.95">
<stop offset="0%" style="stop-color:rgb(58,52,59);stop-opacity: 1"/>
<stop offset="53%" style="stop-color:rgb(16,22,46);stop-opacity: 1"/>
<stop offset="100%" style="stop-color:rgb(42,56,85);stop-opacity: 1"/>
</linearGradient>
<path style="stroke: none; stroke-width: 1; stroke-dasharray: none; stroke-linecap: butt; stroke-dashoffset: 0; stroke-linejoin: miter; stroke-miterlimit: 4; fill: url(#SVGID_未命名的渐变_50-31_31); fill-rule: nonzero; opacity: 1;"  transform=" translate(-49.49, -69.84)" d="M 49.53 69.74 C 49.53 69.97 49.46 70.19999999999999 49.410000000000004 70.42 C 49.49894228354299 70.03570282956323 49.55249932511421 69.64406696307364 49.57 69.25 L 49.57 69.25 C 49.55 69.41 49.55 69.58 49.53 69.74 Z" stroke-linecap="round" />
</g>
<g transform="matrix(0.73 0 0 0.73 333.11 167.42)" id="图层_1_复制"  >
<linearGradient id="SVGID_未命名的渐变_50-32_32" gradientUnits="userSpaceOnUse" gradientTransform="matrix(1 0 0 -1 0 374.78)"  x1="136.9" y1="300.38" x2="159.3" y2="300.38">
<stop offset="0%" style="stop-color:rgb(58,52,59);stop-opacity: 1"/>
<stop offset="53%" style="stop-color:rgb(16,22,46);stop-opacity: 1"/>
<stop offset="100%" style="stop-color:rgb(42,56,85);stop-opacity: 1"/>
</linearGradient>
<path style="stroke: none; stroke-width: 1; stroke-dasharray: none; stroke-linecap: butt; stroke-dashoffset: 0; stroke-linejoin: miter; stroke-miterlimit: 4; fill: url(#SVGID_未命名的渐变_50-32_32); fill-rule: nonzero; opacity: 1;"  transform=" translate(-148.1, -74.41)" d="M 148.31 65.05 C 144.6834431313991 66.96441989301168 140.857033161741 68.47352110803898 136.9 69.55000000000001 L 159.3 83.75999999999999 Z" stroke-linecap="round" />
</g>
<g transform="matrix(0.73 0 0 0.73 255.43 158.56)" id="图层_1_复制"  >
<linearGradient id="SVGID_未命名的渐变_50-33_33" gradientUnits="userSpaceOnUse" gradientTransform="matrix(1 0 0 -1 0 374.78)"  x1="41.61" y1="312.51" x2="41.76" y2="312.51">
<stop offset="0%" style="stop-color:rgb(58,52,59);stop-opacity: 1"/>
<stop offset="53%" style="stop-color:rgb(16,22,46);stop-opacity: 1"/>
<stop offset="100%" style="stop-color:rgb(42,56,85);stop-opacity: 1"/>
</linearGradient>
<path style="stroke: none; stroke-width: 1; stroke-dasharray: none; stroke-linecap: butt; stroke-dashoffset: 0; stroke-linejoin: miter; stroke-miterlimit: 4; fill: url(#SVGID_未命名的渐变_50-33_33); fill-rule: nonzero; opacity: 1;"  transform=" translate(-41.69, -62.28)" d="M 41.61 62.28 L 41.76 62.28 Z" stroke-linecap="round" />
</g>
<g transform="matrix(0.73 0 0 0.73 254.59 158.78)" id="图层_1_复制"  >
<linearGradient id="SVGID_未命名的渐变_50-34_34" gradientUnits="userSpaceOnUse" gradientTransform="matrix(1 0 0 -1 0 374.78)"  x1="40.46" y1="312.2" x2="40.63" y2="312.2">
<stop offset="0%" style="stop-color:rgb(58,52,59);stop-opacity: 1"/>
<stop offset="53%" style="stop-color:rgb(16,22,46);stop-opacity: 1"/>
<stop offset="100%" style="stop-color:rgb(42,56,85);stop-opacity: 1"/>
</linearGradient>
<path style="stroke: none; stroke-width: 1; stroke-dasharray: none; stroke-linecap: butt; stroke-dashoffset: 0; stroke-linejoin: miter; stroke-miterlimit: 4; fill: url(#SVGID_未命名的渐变_50-34_34); fill-rule: nonzero; opacity: 1;"  transform=" translate(-40.54, -62.58)" d="M 40.46 62.61 L 40.62 62.55 Z" stroke-linecap="round" />
</g>
<g transform="matrix(0.73 0 0 0.73 253.82 159.14)" id="图层_1_复制"  >
<linearGradient id="SVGID_未命名的渐变_50-35_35" gradientUnits="userSpaceOnUse" gradientTransform="matrix(1 0 0 -1 0 374.78)"  x1="39.43" y1="311.71" x2="39.55" y2="311.71">
<stop offset="0%" style="stop-color:rgb(58,52,59);stop-opacity: 1"/>
<stop offset="53%" style="stop-color:rgb(16,22,46);stop-opacity: 1"/>
<stop offset="100%" style="stop-color:rgb(42,56,85);stop-opacity: 1"/>
</linearGradient>
<path style="stroke: none; stroke-width: 1; stroke-dasharray: none; stroke-linecap: butt; stroke-dashoffset: 0; stroke-linejoin: miter; stroke-miterlimit: 4; fill: url(#SVGID_未命名的渐变_50-35_35); fill-rule: nonzero; opacity: 1;"  transform=" translate(-39.48, -63.08)" d="M 39.43 63.11 L 39.54 63.04 Z" stroke-linecap="round" />
</g>
<g transform="matrix(0.73 0 0 0.73 257.83 168.03)" id="图层_1_复制"  >
<linearGradient id="SVGID_未命名的渐变_50-36_36" gradientUnits="userSpaceOnUse" gradientTransform="matrix(1 0 0 -1 0 374.78)"  x1="44.98" y1="299.52" x2="45.04" y2="299.52">
<stop offset="0%" style="stop-color:rgb(58,52,59);stop-opacity: 1"/>
<stop offset="53%" style="stop-color:rgb(16,22,46);stop-opacity: 1"/>
<stop offset="100%" style="stop-color:rgb(42,56,85);stop-opacity: 1"/>
</linearGradient>
<path style="stroke: none; stroke-width: 1; stroke-dasharray: none; stroke-linecap: butt; stroke-dashoffset: 0; stroke-linejoin: miter; stroke-miterlimit: 4; fill: url(#SVGID_未命名的渐变_50-36_36); fill-rule: nonzero; opacity: 1;"  transform=" translate(-44.97, -75.25)" d="M 45 75.25 L 44.94 75.25 Z" stroke-linecap="round" />
</g>
<g transform="matrix(0.73 0 0 0.73 257.06 168.22)" id="图层_1_复制"  >
<linearGradient id="SVGID_未命名的渐变_50-37_37" gradientUnits="userSpaceOnUse" gradientTransform="matrix(1 0 0 -1 0 374.78)"  x1="43.86" y1="299.26" x2="44.03" y2="299.26">
<stop offset="0%" style="stop-color:rgb(58,52,59);stop-opacity: 1"/>
<stop offset="53%" style="stop-color:rgb(16,22,46);stop-opacity: 1"/>
<stop offset="100%" style="stop-color:rgb(42,56,85);stop-opacity: 1"/>
</linearGradient>
<path style="stroke: none; stroke-width: 1; stroke-dasharray: none; stroke-linecap: butt; stroke-dashoffset: 0; stroke-linejoin: miter; stroke-miterlimit: 4; fill: url(#SVGID_未命名的渐变_50-37_37); fill-rule: nonzero; opacity: 1;"  transform=" translate(-43.91, -75.51)" d="M 44 75.51 L 43.83 75.51 Z" stroke-linecap="round" />
</g>
<g transform="matrix(0.73 0 0 0.73 251.39 163.3)" id="图层_1_复制"  >
<linearGradient id="SVGID_未命名的渐变_50-38_38" gradientUnits="userSpaceOnUse" gradientTransform="matrix(1 0 0 -1 0 374.78)"  x1="36.14" y1="306.01" x2="36.15" y2="306.01">
<stop offset="0%" style="stop-color:rgb(58,52,59);stop-opacity: 1"/>
<stop offset="53%" style="stop-color:rgb(16,22,46);stop-opacity: 1"/>
<stop offset="100%" style="stop-color:rgb(42,56,85);stop-opacity: 1"/>
</linearGradient>
<path style="stroke: none; stroke-width: 1; stroke-dasharray: none; stroke-linecap: butt; stroke-dashoffset: 0; stroke-linejoin: miter; stroke-miterlimit: 4; fill: url(#SVGID_未命名的渐变_50-38_38); fill-rule: nonzero; opacity: 1;"  transform=" translate(-36.15, -68.77)" d="M 36.15 68.64 C 36.15 68.72 36.15 68.81 36.15 68.89 C 36.15 68.8 36.15 68.72 36.15 68.64 Z" stroke-linecap="round" />
</g>
<g transform="matrix(0.73 0 0 0.73 302.56 179.58)" id="图层_1_复制"  >
<linearGradient id="SVGID_未命名的渐变_50-39_39" gradientUnits="userSpaceOnUse" gradientTransform="matrix(1 0 0 -1 0 374.78)"  x1="24.56" y1="283.63" x2="187.92" y2="283.63">
<stop offset="0%" style="stop-color:rgb(58,52,59);stop-opacity: 1"/>
<stop offset="53%" style="stop-color:rgb(16,22,46);stop-opacity: 1"/>
<stop offset="100%" style="stop-color:rgb(42,56,85);stop-opacity: 1"/>
</linearGradient>
<path style="stroke: none; stroke-width: 1; stroke-dasharray: none; stroke-linecap: butt; stroke-dashoffset: 0; stroke-linejoin: miter; stroke-miterlimit: 4; fill: url(#SVGID_未命名的渐变_50-39_39); fill-rule: nonzero; opacity: 1;"  transform=" translate(-106.24, -91.08)" d="M 156.26 0 C 156.26 0 183.66 46 148.31 65 L 159.31 83.71000000000001 L 136.91 69.5 C 128.91 71.78 118.8 73.1 106.25 73.1 C 12.650000000000006 73.1 56.25 -0.04000000000000625 56.25 -0.04000000000000625 C 56.25 -0.04000000000000625 15.46 31 26.43 67.11 C 26.5 67.35 26.57 67.59 26.65 67.83 C 27.15 69.38 27.709999999999997 70.83 28.29 72.28 C 28.56 72.94 28.84 73.56 29.119999999999997 74.2 C 29.65960033189029 72.46897453269276 30.609964516466636 70.89418333875577 31.889999999999997 69.61 C 33.18211101429345 68.32664668974579 34.747876920291716 67.35231637706127 36.46999999999999 66.76 C 36.492266778177566 66.68840209123819 36.51898550104747 66.6182654437047 36.55 66.55000000000001 L 36.55 66.48000000000002 C 36.61970526689657 66.29234438231926 36.69982987168911 66.10872549633635 36.79 65.93000000000002 L 36.79 65.84000000000002 C 36.88 65.67000000000002 36.97 65.51000000000002 37.07 65.35000000000002 C 37.08731645249278 65.30983420034575 37.11094853783953 65.27269806622941 37.14 65.24000000000002 C 37.24 65.09000000000002 37.34 64.94000000000003 37.45 64.80000000000003 L 37.540000000000006 64.68000000000002 C 37.650000000000006 64.54000000000002 37.78000000000001 64.40000000000002 37.900000000000006 64.27000000000002 L 37.99000000000001 64.17000000000003 C 38.150000000000006 64.01000000000003 38.31000000000001 63.86000000000003 38.49000000000001 63.71000000000003 C 38.76199543059755 63.48975248719347 39.04939532678139 63.28924093171637 39.35000000000001 63.11000000000003 L 39.46000000000001 63.04000000000003 C 39.753829465984765 62.87066684097065 40.06162068537481 62.72680790147313 40.38000000000001 62.61000000000003 L 40.540000000000006 62.550000000000026 C 40.86570825110576 62.433823076175024 41.20008047491319 62.343542575747016 41.540000000000006 62.28000000000002 L 41.690000000000005 62.28000000000002 C 42.053240813139595 62.21608259360057 42.42118786461034 62.18263286164868 42.790000000000006 62.18000000000002 C 44.57490697662014 62.18000000000002 46.2867088104302 62.889051535659284 47.548828637385476 64.15117136261455 C 48.81094846434075 65.41329118956983 49.52000000000001 67.12509302337989 49.52000000000001 68.91000000000003 C 49.52000000000001 69.03000000000003 49.52000000000001 69.15000000000002 49.52000000000001 69.27000000000002 C 49.4975418145812 69.66360308816236 49.4440422486446 70.0548186640737 49.360000000000014 70.44000000000003 L 49.360000000000014 70.44000000000003 C 49.360000000000014 70.66000000000003 49.250000000000014 70.87000000000003 49.180000000000014 71.08000000000003 C 49.180000000000014 71.08000000000003 49.180000000000014 71.08000000000003 49.180000000000014 71.08000000000003 Q 49.070000000000014 71.38000000000002 48.94000000000001 71.68000000000002 C 48.94000000000001 71.68000000000002 48.94000000000001 71.68000000000002 48.94000000000001 71.68000000000002 Q 48.80000000000001 71.97000000000003 48.640000000000015 72.25000000000001 L 48.640000000000015 72.25000000000001 C 48.530000000000015 72.43000000000002 48.41000000000002 72.61000000000001 48.29000000000001 72.78000000000002 L 48.29000000000001 72.78000000000002 C 48.16000000000001 72.95000000000002 48.02000000000001 73.12000000000002 47.88000000000002 73.28000000000002 L 47.88000000000002 73.28000000000002 C 47.73000000000002 73.44000000000001 47.58000000000002 73.60000000000001 47.420000000000016 73.75000000000001 L 47.420000000000016 73.75000000000001 C 47.37144661536035 73.80186260041273 47.31784877890107 73.8487607073146 47.26000000000002 73.89000000000001 L 46.90000000000002 74.17000000000002 L 46.90000000000002 74.17000000000002 C 46.34863535774081 74.59535170371147 45.73468319271635 74.93268805812052 45.08000000000002 75.17000000000002 L 45.02000000000002 75.17000000000002 C 44.69269667149646 75.27331345890421 44.3585411469892 75.35351078478595 44.02000000000002 75.41000000000001 L 43.850000000000016 75.41000000000001 C 43.519165400193195 75.46188316313997 43.184875362152695 75.48862636618323 42.850000000000016 75.49000000000001 C 40.36689049511461 75.49197558736518 38.08569182452905 74.12248700940823 36.920000000000016 71.93 C 34.76205630819279 73.14145505939545 33.461582481335945 75.45683872738984 33.55000000000002 77.93 C 33.55000000000002 81.27000000000001 37.26000000000002 83.86000000000001 41.20000000000002 86.60000000000001 C 45.490000000000016 89.60000000000001 50.640000000000015 93.2 50.63000000000002 98.73 C 57.4085445447872 102.86699970866441 65.00256834801253 105.48704026611142 72.89 106.41 L 85.40000000000002 124.22 L 67.59000000000002 119.28999999999999 L 56.22000000000002 109.44 L 81.22000000000003 162.49 L 81.22000000000003 168.02 C 81.22000000000003 175.84587490510236 87.56412509489769 182.19 95.39000000000003 182.19 L 117.1 182.19 C 124.92587490510232 182.19 131.26999999999998 175.84587490510233 131.26999999999998 168.02 L 131.26999999999998 162.49 L 156.26999999999998 109.43 L 144.89999999999998 119.28 L 127.08999999999997 124.21000000000001 L 139.59999999999997 106.4 C 139.59999999999997 106.4 174.07999999999996 104.13000000000001 185.82999999999996 67.75 C 197.57999999999996 31.36999999999999 156.26 0 156.26 0 Z" stroke-linecap="round" />
</g>
<g transform="matrix(0.73 0 0 0.73 252.97 159.78)" id="图层_1_复制"  >
<linearGradient id="SVGID_未命名的渐变_50-40_40" gradientUnits="userSpaceOnUse" gradientTransform="matrix(1 0 0 -1 0 374.78)"  x1="38.07" y1="310.84" x2="38.57" y2="310.84">
<stop offset="0%" style="stop-color:rgb(58,52,59);stop-opacity: 1"/>
<stop offset="53%" style="stop-color:rgb(16,22,46);stop-opacity: 1"/>
<stop offset="100%" style="stop-color:rgb(42,56,85);stop-opacity: 1"/>
</linearGradient>
<path style="stroke: none; stroke-width: 1; stroke-dasharray: none; stroke-linecap: butt; stroke-dashoffset: 0; stroke-linejoin: miter; stroke-miterlimit: 4; fill: url(#SVGID_未命名的渐变_50-40_40); fill-rule: nonzero; opacity: 1;"  transform=" translate(-38.32, -63.94)" d="M 38.07 64.17 C 38.23 64.01 38.39 63.86 38.57 63.71 L 38.57 63.71 C 38.39 63.86 38.23 64 38.07 64.17 Z" stroke-linecap="round" />
</g>
<g transform="matrix(0.73 0 0 0.73 252.59 160.17)" id="图层_1_复制"  >
<linearGradient id="SVGID_未命名的渐变_50-41_41" gradientUnits="userSpaceOnUse" gradientTransform="matrix(1 0 0 -1 0 374.78)"  x1="37.62" y1="310.3" x2="37.98" y2="310.3">
<stop offset="0%" style="stop-color:rgb(58,52,59);stop-opacity: 1"/>
<stop offset="53%" style="stop-color:rgb(16,22,46);stop-opacity: 1"/>
<stop offset="100%" style="stop-color:rgb(42,56,85);stop-opacity: 1"/>
</linearGradient>
<path style="stroke: none; stroke-width: 1; stroke-dasharray: none; stroke-linecap: butt; stroke-dashoffset: 0; stroke-linejoin: miter; stroke-miterlimit: 4; fill: url(#SVGID_未命名的渐变_50-41_41); fill-rule: nonzero; opacity: 1;"  transform=" translate(-37.8, -64.48)" d="M 37.62 64.68 C 37.73 64.54 37.86 64.4 37.98 64.27000000000001 C 37.86 64.4 37.73 64.54 37.62 64.68 Z" stroke-linecap="round" />
</g>
<g transform="matrix(0.73 0 0 0.73 251.79 161.44)" id="图层_1_复制"  >
<linearGradient id="SVGID_未命名的渐变_50-42_42" gradientUnits="userSpaceOnUse" gradientTransform="matrix(1 0 0 -1 0 374.78)"  x1="36.58" y1="308.56" x2="36.82" y2="308.56">
<stop offset="0%" style="stop-color:rgb(58,52,59);stop-opacity: 1"/>
<stop offset="53%" style="stop-color:rgb(16,22,46);stop-opacity: 1"/>
<stop offset="100%" style="stop-color:rgb(42,56,85);stop-opacity: 1"/>
</linearGradient>
<path style="stroke: none; stroke-width: 1; stroke-dasharray: none; stroke-linecap: butt; stroke-dashoffset: 0; stroke-linejoin: miter; stroke-miterlimit: 4; fill: url(#SVGID_未命名的渐变_50-42_42); fill-rule: nonzero; opacity: 1;"  transform=" translate(-36.7, -66.22)" d="M 36.58 66.49 C 36.64970526689657 66.30234438231923 36.72982987168911 66.11872549633632 36.82 65.94 Z" stroke-linecap="round" />
</g>
<g transform="matrix(0.73 0 0 0.73 252.28 160.56)" id="图层_1_复制"  >
<linearGradient id="SVGID_未命名的渐变_50-43_43" gradientUnits="userSpaceOnUse" gradientTransform="matrix(1 0 0 -1 0 374.78)"  x1="37.22" y1="309.76" x2="37.53" y2="309.76">
<stop offset="0%" style="stop-color:rgb(58,52,59);stop-opacity: 1"/>
<stop offset="53%" style="stop-color:rgb(16,22,46);stop-opacity: 1"/>
<stop offset="100%" style="stop-color:rgb(42,56,85);stop-opacity: 1"/>
</linearGradient>
<path style="stroke: none; stroke-width: 1; stroke-dasharray: none; stroke-linecap: butt; stroke-dashoffset: 0; stroke-linejoin: miter; stroke-miterlimit: 4; fill: url(#SVGID_未命名的渐变_50-43_43); fill-rule: nonzero; opacity: 1;"  transform=" translate(-37.38, -65.02)" d="M 37.22 65.24 C 37.32 65.08999999999999 37.42 64.94 37.53 64.8 C 37.42 64.94 37.32 65.09 37.22 65.24 Z" stroke-linecap="round" />
</g>
<g transform="matrix(0.73 0 0 0.73 252.02 160.98)" id="图层_1_复制"  >
<linearGradient id="SVGID_未命名的渐变_50-44_44" gradientUnits="userSpaceOnUse" gradientTransform="matrix(1 0 0 -1 0 374.78)"  x1="36.87" y1="309.18" x2="37.15" y2="309.18">
<stop offset="0%" style="stop-color:rgb(58,52,59);stop-opacity: 1"/>
<stop offset="53%" style="stop-color:rgb(16,22,46);stop-opacity: 1"/>
<stop offset="100%" style="stop-color:rgb(42,56,85);stop-opacity: 1"/>
</linearGradient>
<path style="stroke: none; stroke-width: 1; stroke-dasharray: none; stroke-linecap: butt; stroke-dashoffset: 0; stroke-linejoin: miter; stroke-miterlimit: 4; fill: url(#SVGID_未命名的渐变_50-44_44); fill-rule: nonzero; opacity: 1;"  transform=" translate(-37.01, -65.59)" d="M 36.87 65.84 C 36.96 65.67 37.05 65.51 37.15 65.35000000000001 C 37.05 65.51 37 65.67 36.87 65.84 Z" stroke-linecap="round" />
</g>
<g transform="matrix(0.73 0 0 0.73 251.66 161.77)" id="图层_1_复制"  >
<linearGradient id="SVGID_未命名的渐变_50-45_45" gradientUnits="userSpaceOnUse" gradientTransform="matrix(1 0 0 -1 0 374.78)"  x1="36.48" y1="308.11" x2="36.56" y2="308.11">
<stop offset="0%" style="stop-color:rgb(58,52,59);stop-opacity: 1"/>
<stop offset="53%" style="stop-color:rgb(16,22,46);stop-opacity: 1"/>
<stop offset="100%" style="stop-color:rgb(42,56,85);stop-opacity: 1"/>
</linearGradient>
<path style="stroke: none; stroke-width: 1; stroke-dasharray: none; stroke-linecap: butt; stroke-dashoffset: 0; stroke-linejoin: miter; stroke-miterlimit: 4; fill: url(#SVGID_未命名的渐变_50-45_45); fill-rule: nonzero; opacity: 1;"  transform=" translate(-36.52, -66.66)" d="M 36.56 66.56 L 36.480000000000004 66.77 L 36.480000000000004 66.77 C 36.52 66.7 36.53 66.63 36.56 66.56 Z" stroke-linecap="round" />
</g>
<g transform="matrix(0.73 0 0 0.73 252.93 177.79)" id="图层_1_复制"  >
<linearGradient id="SVGID_未命名的渐变_50-46_46" gradientUnits="userSpaceOnUse" gradientTransform="matrix(1 0 0 -1 0 374.78)"  x1="25.66" y1="286.15" x2="50.88" y2="286.15">
<stop offset="0%" style="stop-color:rgb(58,52,59);stop-opacity: 1"/>
<stop offset="53%" style="stop-color:rgb(16,22,46);stop-opacity: 1"/>
<stop offset="100%" style="stop-color:rgb(42,56,85);stop-opacity: 1"/>
</linearGradient>
<path style="stroke: none; stroke-width: 1; stroke-dasharray: none; stroke-linecap: butt; stroke-dashoffset: 0; stroke-linejoin: miter; stroke-miterlimit: 4; fill: url(#SVGID_未命名的渐变_50-46_46); fill-rule: nonzero; opacity: 1;"  transform=" translate(-38.25, -88.61)" d="M 37.51 111.5 C 32.01 111.39 27.18 108.1 25.779999999999998 103.5 C 25.56532127977512 102.80247770005518 25.63778497663651 102.04813256646905 25.98132294843788 101.40423352642604 C 26.324860920239253 100.76033448638303 26.91108301297755 100.28009368645718 27.61 100.07 C 29.050486691450768 99.64859652085339 30.561912964176386 100.46449919905041 31 101.9 C 31.71 104.22 34.47 105.9 37.57 106.01 L 37.7 106.01 C 41.113151815743294 106.0407155739227 44.12239267603902 103.77763525391829 45.040000000000006 100.49000000000001 C 46.220000000000006 97.09 43.730000000000004 94.89000000000001 38.150000000000006 91.00000000000001 C 33.510000000000005 87.77000000000001 28.250000000000007 84.11000000000001 28.250000000000007 78.00000000000001 C 28.24597209344776 76.68074627951597 28.444967184000586 75.36872780112532 28.84000000000001 74.11000000000001 C 29.390713319118056 72.3410521020126 30.36173497103593 70.73183247392255 31.67 69.42000000000002 C 32.98497699847453 68.10730906745229 34.58219714392653 67.11203912671026 36.34 66.51000000000002 L 36.50000000000001 66.45000000000002 L 36.870000000000005 66.32000000000002 C 38.166171558835764 65.92261324345809 39.514279974841536 65.72039698105723 40.870000000000005 65.72000000000003 C 44.105046898920506 65.71758943262193 47.23006650018927 66.89436018122258 49.660000000000004 69.03000000000003 L 49.75000000000001 69.11000000000003 L 49.75000000000001 69.38000000000002 C 49.75000000000001 69.50000000000003 49.75000000000001 69.62000000000002 49.75000000000001 69.74000000000002 C 49.72211867676688 69.97923678279918 49.67869353056727 70.21640488896627 49.620000000000005 70.45000000000002 C 49.50891929004784 70.90683805831571 49.35490081219216 71.35215235298537 49.160000000000004 71.78000000000002 C 49.050000000000004 72.01000000000002 48.95 72.21000000000002 48.84 72.40000000000002 C 48.722854085636044 72.60167308631222 48.59257300354219 72.79542443916974 48.45 72.98000000000002 C 48.31324475994258 73.1678539069675 48.1663605998873 73.3481208306717 48.010000000000005 73.52000000000002 L 47.52 74.02000000000002 L 47.220000000000006 74.27000000000002 L 47 74.16 C 46.37041892954243 73.34278705398056 45.58105612752185 72.66230187982488 44.68 72.16 C 42.791564469090346 71.16018453787532 40.58426976450502 70.94808292945424 38.54 71.57 C 38.017106690919064 71.73378655080027 37.514022561282765 71.95514356784024 37.04 72.22999999999999 C 34.950713805893166 73.3844021239131 33.68689180782766 75.61444889114185 33.77 78 C 33.77 81.21 37.43000000000001 83.76 41.31 86.46000000000001 C 45.56 89.46000000000001 50.86 93.11000000000001 50.85 98.80000000000001 C 50.84657939735453 99.98217940743235 50.643732659331725 101.15530970899758 50.25 102.27000000000001 C 48.551434732355105 107.74295524989715 43.49047438513936 111.47485635460949 37.76 111.48000000000002 Z" stroke-linecap="round" />
</g>
<g transform="matrix(0.73 0 0 0.73 252.94 177.8)" id="图层_1_复制"  >
<path style="stroke: none; stroke-width: 1; stroke-dasharray: none; stroke-linecap: butt; stroke-dashoffset: 0; stroke-linejoin: miter; stroke-miterlimit: 4; fill: rgb(255,255,255); fill-rule: nonzero; opacity: 1;"  transform=" translate(-38.28, -88.63)" d="M 40.94 66 C 43.38560412026767 66.00342827191822 45.78064303714142 66.69663779923334 47.849999999999994 68 C 48.455504794040394 68.37705465523925 49.027596280005895 68.80528687865203 49.55999999999999 69.28 C 49.559999999999995 69.44 49.559999999999995 69.61 49.559999999999995 69.77 C 49.559999999999995 69.92999999999999 49.489999999999995 70.22999999999999 49.44 70.45 L 49.44 70.45 C 49.44 70.67 49.33 70.88000000000001 49.26 71.09 C 49.26 71.09 49.26 71.09 49.26 71.09 Q 49.15 71.39 49.019999999999996 71.69 C 49.019999999999996 71.69 49.019999999999996 71.69 49.019999999999996 71.69 Q 48.879999999999995 71.98 48.72 72.25999999999999 L 48.72 72.25999999999999 C 48.61 72.44 48.49 72.61999999999999 48.37 72.78999999999999 L 48.37 72.78999999999999 C 48.239999999999995 72.96 48.099999999999994 73.13 47.96 73.28999999999999 L 47.96 73.28999999999999 C 47.81 73.44999999999999 47.660000000000004 73.60999999999999 47.5 73.75999999999999 L 47.5 73.75999999999999 L 47.34 73.88999999999999 C 46.68207796939496 73.0692690219411 45.8659180495113 72.38913575537137 44.940000000000005 71.88999999999999 C 43.7389447840005 71.23965885768771 42.39581091499958 70.896146359222 41.03 70.88999999999999 C 40.206735121527494 70.89027223702323 39.38798209603747 71.01156898154026 38.599999999999994 71.24999999999999 C 38.058076372285036 71.41845725836887 37.537838446495236 71.65004704468821 37.050000000000004 71.93999999999998 C 34.89205630819278 73.15145505939543 33.591582481335934 75.46683872738981 33.68000000000001 77.93999999999998 C 33.68000000000001 81.27999999999999 37.39000000000001 83.86999999999998 41.330000000000005 86.60999999999999 C 45.620000000000005 89.60999999999999 50.77 93.20999999999998 50.760000000000005 98.73999999999998 C 50.756343169199425 99.89522418245922 50.55684955087176 101.0414671759012 50.17 102.12999999999998 C 48.50014953417909 107.49032677730932 43.53439481608858 111.13863636611052 37.92 111.12999999999998 L 37.65 111.12999999999998 C 32.25 111.01999999999998 27.53 107.80999999999999 26.159999999999997 103.29999999999998 C 25.75742683631096 101.98009693132197 26.500419412221984 100.58362895732053 27.819999999999997 100.17999999999998 C 28.05698034469172 100.109323906771 28.302715698921055 100.07229529175014 28.549999999999997 100.06999999999998 C 29.65305662036226 100.13864474803209 30.580150434414996 100.92342152922586 30.83 102 C 31.569999999999997 104.42 34.43 106.22 37.64 106.28 L 37.77 106.28 C 39.540000000000006 106.28 43.57 105.69 45.34 100.59 C 46.580000000000005 97.03 44.040000000000006 94.77000000000001 38.34 90.82000000000001 C 33.77 87.59 28.57 84 28.57 78 C 28.56624038034531 76.7084830450823 28.758426773368832 75.42386873381982 29.14 74.19 C 29.679600331890292 72.45897453269275 30.62996451646664 70.88418333875576 31.91 69.6 C 33.20211101429345 68.31664668974578 34.76787692029172 67.34231637706127 36.489999999999995 66.75 L 36.49 66.75 C 36.660000000000004 66.69 36.830000000000005 66.62 37 66.57 C 38.27271142998649 66.17497324754578 39.597396135706184 65.97273130774124 40.92999999999999 65.97 M 40.93 65.47 L 40.93 65.47 C 39.5467032677156 65.47220302923861 38.17150674225126 65.68117897183369 36.849999999999994 66.09 L 36.47 66.22 L 36.32 66.27 C 34.52048574458417 66.89604220268869 32.88623037853745 67.92172548681842 31.54 69.27 C 30.206014964416447 70.61144197684536 29.214730581351745 72.25443581590415 28.65 74.06 C 28.24349061892167 75.35408448824333 28.041063497769123 76.70359862926028 28.049999999999997 78.06 C 28.049999999999997 84.27 33.36 87.97 38.05 91.24000000000001 C 43.989999999999995 95.38000000000001 45.91 97.39000000000001 44.839999999999996 100.44000000000001 C 43.22 105.10000000000001 39.69 105.79 37.739999999999995 105.79 L 37.60999999999999 105.79 C 34.60999999999999 105.73 31.949999999999992 104.08000000000001 31.269999999999992 101.86 C 30.886807937079798 100.59543067590734 29.721352150732468 99.73047568464608 28.39999999999999 99.73 C 28.10504269222294 99.7283691155939 27.811596668005105 99.77221737208623 27.52999999999999 99.86 C 25.945334414309457 100.34096505885648 25.050126713783392 102.01500345884023 25.52999999999999 103.6 C 26.95999999999999 108.3 31.87999999999999 111.66999999999999 37.52999999999999 111.78 L 37.80999999999999 111.78 C 43.64885338697239 111.77619987350842 48.80672805001081 107.97566064811168 50.53999999999999 102.4 C 50.949707332505035 101.26123961742339 51.15946268587403 100.06022106184284 51.15999999999999 98.85000000000001 C 51.15999999999999 93.03 45.80999999999999 89.30000000000001 41.50999999999999 86.30000000000001 C 37.68999999999999 83.64000000000001 34.07999999999999 81.12 34.07999999999999 78.04 C 34.00077037520039 75.75745548103438 35.20532600282682 73.62245784617087 37.19999999999998 72.51 C 37.658159101346406 72.24366309787072 38.14447122605735 72.02901498765348 38.649999999999984 71.87 C 40.64605662001622 71.25294983351397 42.80584085886054 71.45812933620418 44.64999999999999 72.44 C 45.520670453783815 72.9105139515915 46.28626359036838 73.55361218632252 46.899999999999984 74.33 L 47.21999999999999 74.73 L 47.60999999999999 74.39 L 47.60999999999999 74.39 L 47.72999999999999 74.29 C 47.90999999999999 74.13000000000001 48.06999999999999 73.96000000000001 48.22999999999999 73.79 C 48.389999999999986 73.62 48.53999999999999 73.42 48.67999999999999 73.24000000000001 C 48.81999999999999 73.06000000000002 48.959999999999994 72.84 49.07999999999999 72.64000000000001 C 49.2047287706765 72.43291843419978 49.318226125557175 72.2192763544244 49.419999999999995 72.00000000000001 C 49.529999999999994 71.76000000000002 49.62 71.54000000000002 49.699999999999996 71.32000000000001 C 49.78567583101179 71.08485254066674 49.855826586571574 70.84433566446175 49.91 70.60000000000001 C 49.9693437083429 70.35253348003779 50.016070658078156 70.1022105350275 50.05 69.85000000000001 C 50.05 69.72000000000001 50.05 69.59 50.05 69.46000000000001 L 50.05 69.32000000000001 L 50.05 69.08000000000001 L 49.87 68.92000000000002 C 49.31336719795964 68.43255342635156 48.71807838124101 67.99110329260516 48.08999999999999 67.60000000000002 C 45.924791625626035 66.28882828062198 43.44126249238768 65.5970374357088 40.90999999999999 65.60000000000002 Z" stroke-linecap="round" />
</g>
<g transform="matrix(0.73 0 0 0.73 302.3 250.85)" id="图层_1_复制"  >
<path style="stroke: rgb(255,255,255); stroke-width: 7; stroke-dasharray: none; stroke-linecap: butt; stroke-dashoffset: 0; stroke-linejoin: miter; stroke-miterlimit: 10; fill: none; fill-rule: nonzero; opacity: 1;"  transform=" translate(-105.89, -188.7)" d="M 98 196.39 L 98 188.86999999999998 C 98.02198951829703 184.52095489616374 101.55090271070107 181.00544263993342 105.9 181 L 105.9 181 C 110.2451722840086 181.01644877826698 113.76355122173301 184.53482771599138 113.78 188.88 L 113.78 196.4" stroke-linecap="round" />
</g>
<g transform="matrix(0.73 0 0 0.73 353.63 191.8)" id="图层_1_复制"  >
<linearGradient id="SVGID_未命名的渐变_50-47_47" gradientUnits="userSpaceOnUse" gradientTransform="matrix(1 0 0 -1 0 374.78)"  x1="147.54" y1="266.96" x2="204.86" y2="266.96">
<stop offset="0%" style="stop-color:rgb(58,52,59);stop-opacity: 1"/>
<stop offset="53%" style="stop-color:rgb(16,22,46);stop-opacity: 1"/>
<stop offset="100%" style="stop-color:rgb(42,56,85);stop-opacity: 1"/>
</linearGradient>
<path style="stroke: none; stroke-width: 1; stroke-dasharray: none; stroke-linecap: butt; stroke-dashoffset: 0; stroke-linejoin: miter; stroke-miterlimit: 4; fill: url(#SVGID_未命名的渐变_50-47_47); fill-rule: nonzero; opacity: 1;"  transform=" translate(-176.2, -107.81)" d="M 193.4 48.9 C 194.16 72.12 184.68 80.72999999999999 184.68 80.72999999999999 C 184.68 80.72999999999999 197.56 114.83999999999999 147.54000000000002 166.73 C 239.25 118.25 193.4 48.9 193.4 48.9 Z" stroke-linecap="round" />
</g>
</svg>